<svg width="128" height="128" viewBox="0 0 128 128" fill="none" xmlns="http://www.w3.org/2000/svg">
  <rect width="128" height="128" rx="28" fill="#2563EB"/>
  <g>
    <!-- PR branch -->
    <circle cx="40" cy="40" r="12" fill="#fff"/>
    <circle cx="40" cy="88" r="12" fill="#fff"/>
    <circle cx="88" cy="64" r="12" fill="#fff"/>
    <path d="M40 52V76C40 80 44 84 48 84H76" stroke="#fff" stroke-width="6" stroke-linecap="round"/>
    <path d="M40 52V76C40 80 44 84 48 84H76" stroke="#2563EB" stroke-width="2" stroke-linecap="round"/>
    <path d="M40 40C40 64 88 64 88 64" stroke="#fff" stroke-width="6" stroke-linecap="round"/>
    <path d="M40 40C40 64 88 64 88 64" stroke="#2563EB" stroke-width="2" stroke-linecap="round"/>
  </g>
  <!-- Rocket/star accent -->
  <g>
    <polygon points="100,28 104,40 116,40 106,48 110,60 100,52 90,60 94,48 84,40 96,40" fill="#fff"/>
    <polygon points="100,32 103,40 112,40 105,46 108,54 100,48 92,54 95,46 88,40 97,40" fill="#2563EB"/>
  </g>
</svg>
